<svg width="37" height="37" viewBox="0 0 37 37" fill="none" xmlns="http://www.w3.org/2000/svg">
<rect width="37" height="37" fill="#737373"/>
<g id="Website Design Accent- Blue">
<path d="M-8260 -1716.5C-8260 -1717.6 -8259.1 -1718.5 -8258 -1718.5H6506C6507.1 -1718.5 6508 -1717.6 6508 -1716.5V5541.5C6508 5542.6 6507.1 5543.5 6506 5543.5H-8258C-8259.1 5543.5 -8260 5542.6 -8260 5541.5V-1716.5Z" fill="#444444"/>
<path d="M-8258 -1718.5V-1717.5H6506V-1718.5V-1719.5H-8258V-1718.5ZM6508 -1716.5H6507V5541.5H6508H6509V-1716.5H6508ZM6506 5543.5V5542.5H-8258V5543.5V5544.5H6506V5543.5ZM-8260 5541.5H-8259V-1716.5H-8260H-8261V5541.5H-8260ZM-8258 5543.5V5542.5C-8258.55 5542.5 -8259 5542.05 -8259 5541.5H-8260H-8261C-8261 5543.16 -8259.66 5544.5 -8258 5544.5V5543.5ZM6508 5541.5H6507C6507 5542.05 6506.55 5542.5 6506 5542.5V5543.5V5544.5C6507.66 5544.5 6509 5543.16 6509 5541.5H6508ZM6506 -1718.5V-1717.5C6506.55 -1717.5 6507 -1717.05 6507 -1716.5H6508H6509C6509 -1718.16 6507.66 -1719.5 6506 -1719.5V-1718.5ZM-8258 -1718.5V-1719.5C-8259.66 -1719.5 -8261 -1718.16 -8261 -1716.5H-8260H-8259C-8259 -1717.05 -8258.55 -1717.5 -8258 -1717.5V-1718.5Z" fill="white" fill-opacity="0.1"/>
<g id="Get Involved" clip-path="url(#clip0_101_3)">
<rect width="1440" height="5031" transform="translate(-122 -936.5)" fill="#FFFCF7"/>
<g id="Frame 2147225457">
<g id="Frame 1171279451">
<rect width="1440" height="2019" transform="translate(-122 -316.5)" fill="url(#paint0_linear_101_3)"/>
<g id="Frame 1171279450">
<g id="Frame 1171279452">
<g id="Frame 1171279449">
<g id="Frame 1171279447">
<rect x="-49.5" y="-49.5" width="637" height="502" rx="15.5" fill="#DDCDC2"/>
<rect x="-49.5" y="-49.5" width="637" height="502" rx="15.5" stroke="#C8AF9D"/>
<g id="Frame 292">
<g id="Frame 290">
<g id="iconamoon:profile-fill">
<path id="Vector" fill-rule="evenodd" clip-rule="evenodd" d="M12.3333 10.7917C12.3333 9.15616 12.983 7.58765 14.1395 6.43117C15.296 5.2747 16.8645 4.625 18.5 4.625C20.1355 4.625 21.704 5.2747 22.8605 6.43117C24.017 7.58765 24.6667 9.15616 24.6667 10.7917C24.6667 12.4272 24.017 13.9957 22.8605 15.1522C21.704 16.3086 20.1355 16.9583 18.5 16.9583C16.8645 16.9583 15.296 16.3086 14.1395 15.1522C12.983 13.9957 12.3333 12.4272 12.3333 10.7917ZM12.3333 20.0417C10.289 20.0417 8.32831 20.8538 6.88272 22.2994C5.43713 23.745 4.625 25.7056 4.625 27.75C4.625 28.9766 5.11228 30.153 5.97963 31.0204C6.84699 31.8877 8.02337 32.375 9.25 32.375H27.75C28.9766 32.375 30.153 31.8877 31.0204 31.0204C31.8877 30.153 32.375 28.9766 32.375 27.75C32.375 25.7056 31.5629 23.745 30.1173 22.2994C28.6717 20.8538 26.711 20.0417 24.6667 20.0417H12.3333Z" fill="#886B56"/>
</g>
</g>
</g>
</g>
</g>
</g>
</g>
</g>
</g>
</g>
</g>
<defs>
<linearGradient id="paint0_linear_101_3" x1="720" y1="0" x2="720" y2="2019" gradientUnits="userSpaceOnUse">
<stop stop-color="#FFFCF6"/>
<stop offset="1" stop-color="#FBF6EE"/>
</linearGradient>
<clipPath id="clip0_101_3">
<rect width="1440" height="5031" fill="white" transform="translate(-122 -936.5)"/>
</clipPath>
</defs>
</svg>
