<svg preserveAspectRatio="none" overflow="visible" style="display: block;" width="50" height="50" viewBox="0 0 50 50" fill="none" xmlns="http://www.w3.org/2000/svg">
<g id="ph:books-fill">
<path id="Vector" d="M45.2441 37.998L38.7617 7.17773C38.6779 6.77469 38.5152 6.39218 38.2831 6.05219C38.051 5.71219 37.754 5.42141 37.4092 5.19654C37.0643 4.97168 36.6785 4.81716 36.2738 4.74187C35.869 4.66658 35.4534 4.672 35.0508 4.75781L25.9082 6.72266C25.0995 6.89973 24.3934 7.38893 23.9436 8.08387C23.4937 8.77882 23.3364 9.62328 23.5059 10.4336L29.9883 41.2539C30.1327 41.9571 30.5149 42.5891 31.0705 43.0436C31.6261 43.4982 32.3212 43.7476 33.0391 43.75C33.261 43.7496 33.4822 43.7261 33.6992 43.6797L42.8418 41.7148C43.6515 41.5374 44.3582 41.0472 44.8082 40.351C45.2581 39.6549 45.4148 38.8092 45.2441 37.998ZM26.5625 9.79492V9.77734L35.7031 7.82422L36.3535 10.9238L27.2129 12.8906L26.5625 9.79492ZM28.5156 19.0488L27.8613 15.9434L37.0059 13.9785L37.6582 17.084L28.5156 19.0488ZM42.1875 38.6602L33.0469 40.6133L32.3965 37.5137L41.5371 35.5469L42.1875 38.6426V38.6602ZM20.3125 6.25H10.9375C10.1087 6.25 9.31384 6.57924 8.72779 7.16529C8.14174 7.75134 7.8125 8.5462 7.8125 9.375V40.625C7.8125 41.4538 8.14174 42.2487 8.72779 42.8347C9.31384 43.4208 10.1087 43.75 10.9375 43.75H20.3125C21.1413 43.75 21.9362 43.4208 22.5222 42.8347C23.1083 42.2487 23.4375 41.4538 23.4375 40.625V9.375C23.4375 8.5462 23.1083 7.75134 22.5222 7.16529C21.9362 6.57924 21.1413 6.25 20.3125 6.25ZM10.9375 9.375H20.3125V12.5H10.9375V9.375ZM20.3125 40.625H10.9375V37.5H20.3125V40.625Z" fill="#3E4F69"/>
</g>
</svg>
