<svg preserveAspectRatio="none" overflow="visible" style="display: block;" width="46" height="46" viewBox="0 0 46 46" fill="none" xmlns="http://www.w3.org/2000/svg">
<g id="mdi:donate">
<path id="Vector" d="M17.365 3.69917C13.7425 3.68 10.2158 7.16833 11.8258 11.5H5.75C4.73334 11.5 3.75831 11.9039 3.03942 12.6228C2.32053 13.3416 1.91667 14.3167 1.91667 15.3333V19.1667C1.91667 19.675 2.1186 20.1625 2.47804 20.522C2.83749 20.8814 3.325 21.0833 3.83333 21.0833H21.0833V15.3333H24.9167V21.0833H42.1667C42.675 21.0833 43.1625 20.8814 43.522 20.522C43.8814 20.1625 44.0833 19.675 44.0833 19.1667V15.3333C44.0833 14.3167 43.6795 13.3416 42.9606 12.6228C42.2417 11.9039 41.2667 11.5 40.25 11.5H34.1742C36.4167 5.2325 27.9833 0.804999 24.0925 6.21L23 7.66667L21.9075 6.17167C20.7 4.46583 19.0325 3.71833 17.365 3.69917ZM17.25 7.66667C18.9558 7.66667 19.8183 9.73667 18.6108 10.9442C17.4033 12.1517 15.3333 11.2892 15.3333 9.58333C15.3333 9.075 15.5353 8.58749 15.8947 8.22805C16.2542 7.8686 16.7417 7.66667 17.25 7.66667ZM28.75 7.66667C30.4558 7.66667 31.3183 9.73667 30.1108 10.9442C28.9033 12.1517 26.8333 11.2892 26.8333 9.58333C26.8333 9.075 27.0353 8.58749 27.3947 8.22805C27.7542 7.8686 28.2417 7.66667 28.75 7.66667ZM3.83333 23V38.3333C3.83333 39.35 4.2372 40.325 4.95609 41.0439C5.67498 41.7628 6.65 42.1667 7.66667 42.1667H38.3333C39.35 42.1667 40.325 41.7628 41.0439 41.0439C41.7628 40.325 42.1667 39.35 42.1667 38.3333V23H24.9167V38.3333H21.0833V23H3.83333Z" fill="white"/>
</g>
</svg>
